<?xml version="1.0" encoding="utf-8" standalone="no"?>
<!DOCTYPE svg PUBLIC "-//W3C//DTD SVG 1.1//EN"
  "http://www.w3.org/Graphics/SVG/1.1/DTD/svg11.dtd">
<svg xmlns:xlink="http://www.w3.org/1999/xlink" width="460.8pt" height="345.6pt" viewBox="0 0 460.8 345.6" xmlns="http://www.w3.org/2000/svg" version="1.1">
 <metadata>
  <rdf:RDF xmlns:dc="http://purl.org/dc/elements/1.1/" xmlns:cc="http://creativecommons.org/ns#" xmlns:rdf="http://www.w3.org/1999/02/22-rdf-syntax-ns#">
   <cc:Work>
    <dc:type rdf:resource="http://purl.org/dc/dcmitype/StillImage"/>
    <dc:date>2026-08-13T12:34:51.143731</dc:date>
    <dc:format>image/svg+xml</dc:format>
    <dc:creator>
     <cc:Agent>
      <dc:title>Matplotlib v3.11.1, https://matplotlib.org/</dc:title>
     </cc:Agent>
    </dc:creator>
   </cc:Work>
  </rdf:RDF>
 </metadata>
 <defs>
  <style type="text/css">*{stroke-linejoin: round; stroke-linecap: butt}</style>
 </defs>
 <g id="figure_1">
  <g id="patch_1">
   <path d="M 0 345.6 
L 460.8 345.6 
L 460.8 0 
L 0 0 
z
" style="fill: #ffffff"/>
  </g>
  <g id="axes_1">
   <g id="patch_2">
    <path d="M 57.6 307.584 
L 414.72 307.584 
L 414.72 41.472 
L 57.6 41.472 
z
" style="fill: #ffffff"/>
   </g>
   <g id="matplotlib.axis_1">
    <g id="xtick_1">
     <g id="line2d_1">
      <path d="M 58.466796 307.584 
L 58.466796 41.472 
" clip-path="url(#pa20baa33b8)" style="fill: none; stroke: #b0b0b0; stroke-width: 0.8; stroke-linecap: square"/>
     </g>
     <g id="line2d_2">
      <defs>
       <path id="m2496afdc1b" d="M 0 0 
L 0 3.5 
" style="stroke: #000000; stroke-width: 0.8"/>
      </defs>
      <g>
       <use xlink:href="#m2496afdc1b" x="58.466796" y="307.584" style="stroke: #000000; stroke-width: 0.8"/>
      </g>
     </g>
     <g id="text_1">
      <!-- 2024-04 -->
      <g transform="translate(37.57539 322.181656) scale(0.1 -0.1)">
       <defs>
        <path id="DejaVuSans-15" d="M 1228 531 
L 3431 531 
L 3431 0 
L 469 0 
L 469 531 
Q 828 903 1448 1529 
Q 2069 2156 2228 2338 
Q 2531 2678 2651 2914 
Q 2772 3150 2772 3378 
Q 2772 3750 2511 3984 
Q 2250 4219 1831 4219 
Q 1534 4219 1204 4116 
Q 875 4013 500 3803 
L 500 4441 
Q 881 4594 1212 4672 
Q 1544 4750 1819 4750 
Q 2544 4750 2975 4387 
Q 3406 4025 3406 3419 
Q 3406 3131 3298 2873 
Q 3191 2616 2906 2266 
Q 2828 2175 2409 1742 
Q 1991 1309 1228 531 
z
" transform="scale(0.015625)"/>
        <path id="DejaVuSans-13" d="M 2034 4250 
Q 1547 4250 1301 3770 
Q 1056 3291 1056 2328 
Q 1056 1369 1301 889 
Q 1547 409 2034 409 
Q 2525 409 2770 889 
Q 3016 1369 3016 2328 
Q 3016 3291 2770 3770 
Q 2525 4250 2034 4250 
z
M 2034 4750 
Q 2819 4750 3233 4129 
Q 3647 3509 3647 2328 
Q 3647 1150 3233 529 
Q 2819 -91 2034 -91 
Q 1250 -91 836 529 
Q 422 1150 422 2328 
Q 422 3509 836 4129 
Q 1250 4750 2034 4750 
z
" transform="scale(0.015625)"/>
        <path id="DejaVuSans-17" d="M 2419 4116 
L 825 1625 
L 2419 1625 
L 2419 4116 
z
M 2253 4666 
L 3047 4666 
L 3047 1625 
L 3713 1625 
L 3713 1100 
L 3047 1100 
L 3047 0 
L 2419 0 
L 2419 1100 
L 313 1100 
L 313 1709 
L 2253 4666 
z
" transform="scale(0.015625)"/>
        <path id="DejaVuSans-10" d="M 313 2009 
L 1997 2009 
L 1997 1497 
L 313 1497 
L 313 2009 
z
" transform="scale(0.015625)"/>
       </defs>
       <use xlink:href="#DejaVuSans-15"/>
       <use xlink:href="#DejaVuSans-13" transform="translate(63.625 0)"/>
       <use xlink:href="#DejaVuSans-15" transform="translate(127.25 0)"/>
       <use xlink:href="#DejaVuSans-17" transform="translate(190.875 0)"/>
       <use xlink:href="#DejaVuSans-10" transform="translate(254.5 0)"/>
       <use xlink:href="#DejaVuSans-13" transform="translate(290.578125 0)"/>
       <use xlink:href="#DejaVuSans-17" transform="translate(354.203125 0)"/>
      </g>
     </g>
    </g>
    <g id="xtick_2">
     <g id="line2d_3">
      <path d="M 94.320635 307.584 
L 94.320635 41.472 
" clip-path="url(#pa20baa33b8)" style="fill: none; stroke: #b0b0b0; stroke-width: 0.8; stroke-linecap: square"/>
     </g>
     <g id="line2d_4">
      <g>
       <use xlink:href="#m2496afdc1b" x="94.320635" y="307.584" style="stroke: #000000; stroke-width: 0.8"/>
      </g>
     </g>
     <g id="text_2">
      <!-- 2024-07 -->
      <g transform="translate(73.429229 322.181656) scale(0.1 -0.1)">
       <defs>
        <path id="DejaVuSans-1a" d="M 525 4666 
L 3525 4666 
L 3525 4397 
L 1831 0 
L 1172 0 
L 2766 4134 
L 525 4134 
L 525 4666 
z
" transform="scale(0.015625)"/>
       </defs>
       <use xlink:href="#DejaVuSans-15"/>
       <use xlink:href="#DejaVuSans-13" transform="translate(63.625 0)"/>
       <use xlink:href="#DejaVuSans-15" transform="translate(127.25 0)"/>
       <use xlink:href="#DejaVuSans-17" transform="translate(190.875 0)"/>
       <use xlink:href="#DejaVuSans-10" transform="translate(254.5 0)"/>
       <use xlink:href="#DejaVuSans-13" transform="translate(290.578125 0)"/>
       <use xlink:href="#DejaVuSans-1a" transform="translate(354.203125 0)"/>
      </g>
     </g>
    </g>
    <g id="xtick_3">
     <g id="line2d_5">
      <path d="M 130.568473 307.584 
L 130.568473 41.472 
" clip-path="url(#pa20baa33b8)" style="fill: none; stroke: #b0b0b0; stroke-width: 0.8; stroke-linecap: square"/>
     </g>
     <g id="line2d_6">
      <g>
       <use xlink:href="#m2496afdc1b" x="130.568473" y="307.584" style="stroke: #000000; stroke-width: 0.8"/>
      </g>
     </g>
     <g id="text_3">
      <!-- 2024-10 -->
      <g transform="translate(109.677067 322.181656) scale(0.1 -0.1)">
       <defs>
        <path id="DejaVuSans-14" d="M 794 531 
L 1825 531 
L 1825 4091 
L 703 3866 
L 703 4441 
L 1819 4666 
L 2450 4666 
L 2450 531 
L 3481 531 
L 3481 0 
L 794 0 
L 794 531 
z
" transform="scale(0.015625)"/>
       </defs>
       <use xlink:href="#DejaVuSans-15"/>
       <use xlink:href="#DejaVuSans-13" transform="translate(63.625 0)"/>
       <use xlink:href="#DejaVuSans-15" transform="translate(127.25 0)"/>
       <use xlink:href="#DejaVuSans-17" transform="translate(190.875 0)"/>
       <use xlink:href="#DejaVuSans-10" transform="translate(254.5 0)"/>
       <use xlink:href="#DejaVuSans-14" transform="translate(290.578125 0)"/>
       <use xlink:href="#DejaVuSans-13" transform="translate(354.203125 0)"/>
      </g>
     </g>
    </g>
    <g id="xtick_4">
     <g id="line2d_7">
      <path d="M 166.832727 307.584 
L 166.832727 41.472 
" clip-path="url(#pa20baa33b8)" style="fill: none; stroke: #b0b0b0; stroke-width: 0.8; stroke-linecap: square"/>
     </g>
     <g id="line2d_8">
      <g>
       <use xlink:href="#m2496afdc1b" x="166.832727" y="307.584" style="stroke: #000000; stroke-width: 0.8"/>
      </g>
     </g>
     <g id="text_4">
      <!-- 2025-01 -->
      <g transform="translate(145.941321 322.181656) scale(0.1 -0.1)">
       <defs>
        <path id="DejaVuSans-18" d="M 691 4666 
L 3169 4666 
L 3169 4134 
L 1269 4134 
L 1269 2991 
Q 1406 3038 1543 3061 
Q 1681 3084 1819 3084 
Q 2600 3084 3056 2656 
Q 3513 2228 3513 1497 
Q 3513 744 3044 326 
Q 2575 -91 1722 -91 
Q 1428 -91 1123 -41 
Q 819 9 494 109 
L 494 744 
Q 775 591 1075 516 
Q 1375 441 1709 441 
Q 2250 441 2565 725 
Q 2881 1009 2881 1497 
Q 2881 1984 2565 2268 
Q 2250 2553 1709 2553 
Q 1456 2553 1204 2497 
Q 953 2441 691 2322 
L 691 4666 
z
" transform="scale(0.015625)"/>
       </defs>
       <use xlink:href="#DejaVuSans-15"/>
       <use xlink:href="#DejaVuSans-13" transform="translate(63.625 0)"/>
       <use xlink:href="#DejaVuSans-15" transform="translate(127.25 0)"/>
       <use xlink:href="#DejaVuSans-18" transform="translate(190.875 0)"/>
       <use xlink:href="#DejaVuSans-10" transform="translate(254.5 0)"/>
       <use xlink:href="#DejaVuSans-13" transform="translate(290.578125 0)"/>
       <use xlink:href="#DejaVuSans-14" transform="translate(354.203125 0)"/>
      </g>
     </g>
    </g>
    <g id="xtick_5">
     <g id="line2d_9">
      <path d="M 202.276152 307.584 
L 202.276152 41.472 
" clip-path="url(#pa20baa33b8)" style="fill: none; stroke: #b0b0b0; stroke-width: 0.8; stroke-linecap: square"/>
     </g>
     <g id="line2d_10">
      <g>
       <use xlink:href="#m2496afdc1b" x="202.276152" y="307.584" style="stroke: #000000; stroke-width: 0.8"/>
      </g>
     </g>
     <g id="text_5">
      <!-- 2025-04 -->
      <g transform="translate(181.384746 322.181656) scale(0.1 -0.1)">
       <use xlink:href="#DejaVuSans-15"/>
       <use xlink:href="#DejaVuSans-13" transform="translate(63.625 0)"/>
       <use xlink:href="#DejaVuSans-15" transform="translate(127.25 0)"/>
       <use xlink:href="#DejaVuSans-18" transform="translate(190.875 0)"/>
       <use xlink:href="#DejaVuSans-10" transform="translate(254.5 0)"/>
       <use xlink:href="#DejaVuSans-13" transform="translate(290.578125 0)"/>
       <use xlink:href="#DejaVuSans-17" transform="translate(354.203125 0)"/>
      </g>
     </g>
    </g>
    <g id="xtick_6">
     <g id="line2d_11">
      <path d="M 238.129991 307.584 
L 238.129991 41.472 
" clip-path="url(#pa20baa33b8)" style="fill: none; stroke: #b0b0b0; stroke-width: 0.8; stroke-linecap: square"/>
     </g>
     <g id="line2d_12">
      <g>
       <use xlink:href="#m2496afdc1b" x="238.129991" y="307.584" style="stroke: #000000; stroke-width: 0.8"/>
      </g>
     </g>
     <g id="text_6">
      <!-- 2025-07 -->
      <g transform="translate(217.238585 322.181656) scale(0.1 -0.1)">
       <use xlink:href="#DejaVuSans-15"/>
       <use xlink:href="#DejaVuSans-13" transform="translate(63.625 0)"/>
       <use xlink:href="#DejaVuSans-15" transform="translate(127.25 0)"/>
       <use xlink:href="#DejaVuSans-18" transform="translate(190.875 0)"/>
       <use xlink:href="#DejaVuSans-10" transform="translate(254.5 0)"/>
       <use xlink:href="#DejaVuSans-13" transform="translate(290.578125 0)"/>
       <use xlink:href="#DejaVuSans-1a" transform="translate(354.203125 0)"/>
      </g>
     </g>
    </g>
    <g id="xtick_7">
     <g id="line2d_13">
      <path d="M 274.377829 307.584 
L 274.377829 41.472 
" clip-path="url(#pa20baa33b8)" style="fill: none; stroke: #b0b0b0; stroke-width: 0.8; stroke-linecap: square"/>
     </g>
     <g id="line2d_14">
      <g>
       <use xlink:href="#m2496afdc1b" x="274.377829" y="307.584" style="stroke: #000000; stroke-width: 0.8"/>
      </g>
     </g>
     <g id="text_7">
      <!-- 2025-10 -->
      <g transform="translate(253.486423 322.181656) scale(0.1 -0.1)">
       <use xlink:href="#DejaVuSans-15"/>
       <use xlink:href="#DejaVuSans-13" transform="translate(63.625 0)"/>
       <use xlink:href="#DejaVuSans-15" transform="translate(127.25 0)"/>
       <use xlink:href="#DejaVuSans-18" transform="translate(190.875 0)"/>
       <use xlink:href="#DejaVuSans-10" transform="translate(254.5 0)"/>
       <use xlink:href="#DejaVuSans-14" transform="translate(290.578125 0)"/>
       <use xlink:href="#DejaVuSans-13" transform="translate(354.203125 0)"/>
      </g>
     </g>
    </g>
    <g id="xtick_8">
     <g id="line2d_15">
      <path d="M 310.642083 307.584 
L 310.642083 41.472 
" clip-path="url(#pa20baa33b8)" style="fill: none; stroke: #b0b0b0; stroke-width: 0.8; stroke-linecap: square"/>
     </g>
     <g id="line2d_16">
      <g>
       <use xlink:href="#m2496afdc1b" x="310.642083" y="307.584" style="stroke: #000000; stroke-width: 0.8"/>
      </g>
     </g>
     <g id="text_8">
      <!-- 2026-01 -->
      <g transform="translate(289.750677 322.181656) scale(0.1 -0.1)">
       <defs>
        <path id="DejaVuSans-19" d="M 2113 2584 
Q 1688 2584 1439 2293 
Q 1191 2003 1191 1497 
Q 1191 994 1439 701 
Q 1688 409 2113 409 
Q 2538 409 2786 701 
Q 3034 994 3034 1497 
Q 3034 2003 2786 2293 
Q 2538 2584 2113 2584 
z
M 3366 4563 
L 3366 3988 
Q 3128 4100 2886 4159 
Q 2644 4219 2406 4219 
Q 1781 4219 1451 3797 
Q 1122 3375 1075 2522 
Q 1259 2794 1537 2939 
Q 1816 3084 2150 3084 
Q 2853 3084 3261 2657 
Q 3669 2231 3669 1497 
Q 3669 778 3244 343 
Q 2819 -91 2113 -91 
Q 1303 -91 875 529 
Q 447 1150 447 2328 
Q 447 3434 972 4092 
Q 1497 4750 2381 4750 
Q 2619 4750 2861 4703 
Q 3103 4656 3366 4563 
z
" transform="scale(0.015625)"/>
       </defs>
       <use xlink:href="#DejaVuSans-15"/>
       <use xlink:href="#DejaVuSans-13" transform="translate(63.625 0)"/>
       <use xlink:href="#DejaVuSans-15" transform="translate(127.25 0)"/>
       <use xlink:href="#DejaVuSans-19" transform="translate(190.875 0)"/>
       <use xlink:href="#DejaVuSans-10" transform="translate(254.5 0)"/>
       <use xlink:href="#DejaVuSans-13" transform="translate(290.578125 0)"/>
       <use xlink:href="#DejaVuSans-14" transform="translate(354.203125 0)"/>
      </g>
     </g>
    </g>
    <g id="xtick_9">
     <g id="line2d_17">
      <path d="M 346.085508 307.584 
L 346.085508 41.472 
" clip-path="url(#pa20baa33b8)" style="fill: none; stroke: #b0b0b0; stroke-width: 0.8; stroke-linecap: square"/>
     </g>
     <g id="line2d_18">
      <g>
       <use xlink:href="#m2496afdc1b" x="346.085508" y="307.584" style="stroke: #000000; stroke-width: 0.8"/>
      </g>
     </g>
     <g id="text_9">
      <!-- 2026-04 -->
      <g transform="translate(325.194101 322.181656) scale(0.1 -0.1)">
       <use xlink:href="#DejaVuSans-15"/>
       <use xlink:href="#DejaVuSans-13" transform="translate(63.625 0)"/>
       <use xlink:href="#DejaVuSans-15" transform="translate(127.25 0)"/>
       <use xlink:href="#DejaVuSans-19" transform="translate(190.875 0)"/>
       <use xlink:href="#DejaVuSans-10" transform="translate(254.5 0)"/>
       <use xlink:href="#DejaVuSans-13" transform="translate(290.578125 0)"/>
       <use xlink:href="#DejaVuSans-17" transform="translate(354.203125 0)"/>
      </g>
     </g>
    </g>
    <g id="xtick_10">
     <g id="line2d_19">
      <path d="M 381.939347 307.584 
L 381.939347 41.472 
" clip-path="url(#pa20baa33b8)" style="fill: none; stroke: #b0b0b0; stroke-width: 0.8; stroke-linecap: square"/>
     </g>
     <g id="line2d_20">
      <g>
       <use xlink:href="#m2496afdc1b" x="381.939347" y="307.584" style="stroke: #000000; stroke-width: 0.8"/>
      </g>
     </g>
     <g id="text_10">
      <!-- 2026-07 -->
      <g transform="translate(361.047941 322.181656) scale(0.1 -0.1)">
       <use xlink:href="#DejaVuSans-15"/>
       <use xlink:href="#DejaVuSans-13" transform="translate(63.625 0)"/>
       <use xlink:href="#DejaVuSans-15" transform="translate(127.25 0)"/>
       <use xlink:href="#DejaVuSans-19" transform="translate(190.875 0)"/>
       <use xlink:href="#DejaVuSans-10" transform="translate(254.5 0)"/>
       <use xlink:href="#DejaVuSans-13" transform="translate(290.578125 0)"/>
       <use xlink:href="#DejaVuSans-1a" transform="translate(354.203125 0)"/>
      </g>
     </g>
    </g>
    <g id="text_11">
     <!-- Time -->
     <g transform="translate(223.924062 336.182437) scale(0.1 -0.1)">
      <defs>
       <path id="DejaVuSans-37" d="M -19 4666 
L 3928 4666 
L 3928 4134 
L 2272 4134 
L 2272 0 
L 1638 0 
L 1638 4134 
L -19 4134 
L -19 4666 
z
" transform="scale(0.015625)"/>
       <path id="DejaVuSans-4c" d="M 603 3500 
L 1178 3500 
L 1178 0 
L 603 0 
L 603 3500 
z
M 603 4863 
L 1178 4863 
L 1178 4134 
L 603 4134 
L 603 4863 
z
" transform="scale(0.015625)"/>
       <path id="DejaVuSans-50" d="M 3328 2828 
Q 3544 3216 3844 3400 
Q 4144 3584 4550 3584 
Q 5097 3584 5394 3201 
Q 5691 2819 5691 2113 
L 5691 0 
L 5113 0 
L 5113 2094 
Q 5113 2597 4934 2840 
Q 4756 3084 4391 3084 
Q 3944 3084 3684 2787 
Q 3425 2491 3425 1978 
L 3425 0 
L 2847 0 
L 2847 2094 
Q 2847 2600 2669 2842 
Q 2491 3084 2119 3084 
Q 1678 3084 1418 2786 
Q 1159 2488 1159 1978 
L 1159 0 
L 581 0 
L 581 3500 
L 1159 3500 
L 1159 2956 
Q 1356 3278 1631 3431 
Q 1906 3584 2284 3584 
Q 2666 3584 2933 3390 
Q 3200 3197 3328 2828 
z
" transform="scale(0.015625)"/>
       <path id="DejaVuSans-48" d="M 3597 1894 
L 3597 1613 
L 953 1613 
Q 991 1019 1311 708 
Q 1631 397 2203 397 
Q 2534 397 2845 478 
Q 3156 559 3463 722 
L 3463 178 
Q 3153 47 2828 -22 
Q 2503 -91 2169 -91 
Q 1331 -91 842 396 
Q 353 884 353 1716 
Q 353 2575 817 3079 
Q 1281 3584 2069 3584 
Q 2775 3584 3186 3129 
Q 3597 2675 3597 1894 
z
M 3022 2063 
Q 3016 2534 2758 2815 
Q 2500 3097 2075 3097 
Q 1594 3097 1305 2825 
Q 1016 2553 972 2059 
L 3022 2063 
z
" transform="scale(0.015625)"/>
      </defs>
      <use xlink:href="#DejaVuSans-37"/>
      <use xlink:href="#DejaVuSans-4c" transform="translate(58 0)"/>
      <use xlink:href="#DejaVuSans-50" transform="translate(85.78125 0)"/>
      <use xlink:href="#DejaVuSans-48" transform="translate(183.1875 0)"/>
     </g>
    </g>
   </g>
   <g id="matplotlib.axis_2">
    <g id="ytick_1">
     <g id="line2d_21">
      <path d="M 57.6 278.208 
L 414.72 278.208 
" clip-path="url(#pa20baa33b8)" style="fill: none; stroke: #b0b0b0; stroke-width: 0.8; stroke-linecap: square"/>
     </g>
     <g id="line2d_22">
      <defs>
       <path id="mbe378a22ae" d="M 0 0 
L -3.5 0 
" style="stroke: #000000; stroke-width: 0.8"/>
      </defs>
      <g>
       <use xlink:href="#mbe378a22ae" x="57.6" y="278.208" style="stroke: #000000; stroke-width: 0.8"/>
      </g>
     </g>
     <g id="text_12">
      <!-- 1500 -->
      <g transform="translate(25.15 282.006828) scale(0.1 -0.1)">
       <use xlink:href="#DejaVuSans-14"/>
       <use xlink:href="#DejaVuSans-18" transform="translate(63.625 0)"/>
       <use xlink:href="#DejaVuSans-13" transform="translate(127.25 0)"/>
       <use xlink:href="#DejaVuSans-13" transform="translate(190.875 0)"/>
      </g>
     </g>
    </g>
    <g id="ytick_2">
     <g id="line2d_23">
      <path d="M 57.6 235.008 
L 414.72 235.008 
" clip-path="url(#pa20baa33b8)" style="fill: none; stroke: #b0b0b0; stroke-width: 0.8; stroke-linecap: square"/>
     </g>
     <g id="line2d_24">
      <g>
       <use xlink:href="#mbe378a22ae" x="57.6" y="235.008" style="stroke: #000000; stroke-width: 0.8"/>
      </g>
     </g>
     <g id="text_13">
      <!-- 2000 -->
      <g transform="translate(25.15 238.806828) scale(0.1 -0.1)">
       <use xlink:href="#DejaVuSans-15"/>
       <use xlink:href="#DejaVuSans-13" transform="translate(63.625 0)"/>
       <use xlink:href="#DejaVuSans-13" transform="translate(127.25 0)"/>
       <use xlink:href="#DejaVuSans-13" transform="translate(190.875 0)"/>
      </g>
     </g>
    </g>
    <g id="ytick_3">
     <g id="line2d_25">
      <path d="M 57.6 191.808 
L 414.72 191.808 
" clip-path="url(#pa20baa33b8)" style="fill: none; stroke: #b0b0b0; stroke-width: 0.8; stroke-linecap: square"/>
     </g>
     <g id="line2d_26">
      <g>
       <use xlink:href="#mbe378a22ae" x="57.6" y="191.808" style="stroke: #000000; stroke-width: 0.8"/>
      </g>
     </g>
     <g id="text_14">
      <!-- 2500 -->
      <g transform="translate(25.15 195.606828) scale(0.1 -0.1)">
       <use xlink:href="#DejaVuSans-15"/>
       <use xlink:href="#DejaVuSans-18" transform="translate(63.625 0)"/>
       <use xlink:href="#DejaVuSans-13" transform="translate(127.25 0)"/>
       <use xlink:href="#DejaVuSans-13" transform="translate(190.875 0)"/>
      </g>
     </g>
    </g>
    <g id="ytick_4">
     <g id="line2d_27">
      <path d="M 57.6 148.608 
L 414.72 148.608 
" clip-path="url(#pa20baa33b8)" style="fill: none; stroke: #b0b0b0; stroke-width: 0.8; stroke-linecap: square"/>
     </g>
     <g id="line2d_28">
      <g>
       <use xlink:href="#mbe378a22ae" x="57.6" y="148.608" style="stroke: #000000; stroke-width: 0.8"/>
      </g>
     </g>
     <g id="text_15">
      <!-- 3000 -->
      <g transform="translate(25.15 152.406828) scale(0.1 -0.1)">
       <defs>
        <path id="DejaVuSans-16" d="M 2597 2516 
Q 3050 2419 3304 2112 
Q 3559 1806 3559 1356 
Q 3559 666 3084 287 
Q 2609 -91 1734 -91 
Q 1441 -91 1130 -33 
Q 819 25 488 141 
L 488 750 
Q 750 597 1062 519 
Q 1375 441 1716 441 
Q 2309 441 2620 675 
Q 2931 909 2931 1356 
Q 2931 1769 2642 2001 
Q 2353 2234 1838 2234 
L 1294 2234 
L 1294 2753 
L 1863 2753 
Q 2328 2753 2575 2939 
Q 2822 3125 2822 3475 
Q 2822 3834 2567 4026 
Q 2313 4219 1838 4219 
Q 1578 4219 1281 4162 
Q 984 4106 628 3988 
L 628 4550 
Q 988 4650 1302 4700 
Q 1616 4750 1894 4750 
Q 2613 4750 3031 4423 
Q 3450 4097 3450 3541 
Q 3450 3153 3228 2886 
Q 3006 2619 2597 2516 
z
" transform="scale(0.015625)"/>
       </defs>
       <use xlink:href="#DejaVuSans-16"/>
       <use xlink:href="#DejaVuSans-13" transform="translate(63.625 0)"/>
       <use xlink:href="#DejaVuSans-13" transform="translate(127.25 0)"/>
       <use xlink:href="#DejaVuSans-13" transform="translate(190.875 0)"/>
      </g>
     </g>
    </g>
    <g id="ytick_5">
     <g id="line2d_29">
      <path d="M 57.6 105.408 
L 414.72 105.408 
" clip-path="url(#pa20baa33b8)" style="fill: none; stroke: #b0b0b0; stroke-width: 0.8; stroke-linecap: square"/>
     </g>
     <g id="line2d_30">
      <g>
       <use xlink:href="#mbe378a22ae" x="57.6" y="105.408" style="stroke: #000000; stroke-width: 0.8"/>
      </g>
     </g>
     <g id="text_16">
      <!-- 3500 -->
      <g transform="translate(25.15 109.206828) scale(0.1 -0.1)">
       <use xlink:href="#DejaVuSans-16"/>
       <use xlink:href="#DejaVuSans-18" transform="translate(63.625 0)"/>
       <use xlink:href="#DejaVuSans-13" transform="translate(127.25 0)"/>
       <use xlink:href="#DejaVuSans-13" transform="translate(190.875 0)"/>
      </g>
     </g>
    </g>
    <g id="ytick_6">
     <g id="line2d_31">
      <path d="M 57.6 62.208 
L 414.72 62.208 
" clip-path="url(#pa20baa33b8)" style="fill: none; stroke: #b0b0b0; stroke-width: 0.8; stroke-linecap: square"/>
     </g>
     <g id="line2d_32">
      <g>
       <use xlink:href="#mbe378a22ae" x="57.6" y="62.208" style="stroke: #000000; stroke-width: 0.8"/>
      </g>
     </g>
     <g id="text_17">
      <!-- 4000 -->
      <g transform="translate(25.15 66.006828) scale(0.1 -0.1)">
       <use xlink:href="#DejaVuSans-17"/>
       <use xlink:href="#DejaVuSans-13" transform="translate(63.625 0)"/>
       <use xlink:href="#DejaVuSans-13" transform="translate(127.25 0)"/>
       <use xlink:href="#DejaVuSans-13" transform="translate(190.875 0)"/>
      </g>
     </g>
    </g>
    <g id="text_18">
     <!-- Price -->
     <g transform="translate(18.747656 186.725656) rotate(-90) scale(0.1 -0.1)">
      <defs>
       <path id="DejaVuSans-33" d="M 1259 4147 
L 1259 2394 
L 2053 2394 
Q 2494 2394 2734 2622 
Q 2975 2850 2975 3272 
Q 2975 3691 2734 3919 
Q 2494 4147 2053 4147 
L 1259 4147 
z
M 628 4666 
L 2053 4666 
Q 2838 4666 3239 4311 
Q 3641 3956 3641 3272 
Q 3641 2581 3239 2228 
Q 2838 1875 2053 1875 
L 1259 1875 
L 1259 0 
L 628 0 
L 628 4666 
z
" transform="scale(0.015625)"/>
       <path id="DejaVuSans-55" d="M 2631 2963 
Q 2534 3019 2420 3045 
Q 2306 3072 2169 3072 
Q 1681 3072 1420 2755 
Q 1159 2438 1159 1844 
L 1159 0 
L 581 0 
L 581 3500 
L 1159 3500 
L 1159 2956 
Q 1341 3275 1631 3429 
Q 1922 3584 2338 3584 
Q 2397 3584 2469 3576 
Q 2541 3569 2628 3553 
L 2631 2963 
z
" transform="scale(0.015625)"/>
       <path id="DejaVuSans-46" d="M 3122 3366 
L 3122 2828 
Q 2878 2963 2633 3030 
Q 2388 3097 2138 3097 
Q 1578 3097 1268 2742 
Q 959 2388 959 1747 
Q 959 1106 1268 751 
Q 1578 397 2138 397 
Q 2388 397 2633 464 
Q 2878 531 3122 666 
L 3122 134 
Q 2881 22 2623 -34 
Q 2366 -91 2075 -91 
Q 1284 -91 818 406 
Q 353 903 353 1747 
Q 353 2603 823 3093 
Q 1294 3584 2113 3584 
Q 2378 3584 2631 3529 
Q 2884 3475 3122 3366 
z
" transform="scale(0.015625)"/>
      </defs>
      <use xlink:href="#DejaVuSans-33"/>
      <use xlink:href="#DejaVuSans-55" transform="translate(58.546875 0)"/>
      <use xlink:href="#DejaVuSans-4c" transform="translate(99.65625 0)"/>
      <use xlink:href="#DejaVuSans-46" transform="translate(127.4375 0)"/>
      <use xlink:href="#DejaVuSans-48" transform="translate(182.421875 0)"/>
     </g>
    </g>
   </g>
   <g id="line2d_33">
    <path d="M 73.832727 263.52 
L 75.40872 260.064 
L 75.802718 260.928 
L 76.196717 262.656 
L 76.590715 263.52 
L 78.166708 264.384 
L 78.560706 264.384 
L 78.954704 264.816 
L 79.348703 264.816 
L 80.530697 265.248 
L 81.318694 266.976 
L 81.712692 266.976 
L 82.10669 268.704 
L 83.288685 267.408 
L 83.682683 267.84 
L 84.076681 265.248 
L 84.864678 264.384 
L 86.046673 266.112 
L 86.440671 266.976 
L 86.834669 265.248 
L 87.228667 265.248 
L 87.622665 266.976 
L 89.592657 266.976 
L 89.986655 266.112 
L 91.562648 263.736 
L 91.956646 264.384 
L 92.350644 264.384 
L 93.138641 263.52 
L 94.320635 264.384 
L 95.108632 265.248 
L 95.50263 266.112 
L 95.896628 266.112 
L 97.078623 270.432 
L 97.472621 272.592 
L 97.86662 275.616 
L 98.260618 274.752 
L 98.654616 274.752 
L 99.836611 271.296 
L 100.230609 267.84 
L 100.624607 268.704 
L 101.018605 267.84 
L 101.412604 267.84 
L 102.594598 268.704 
L 102.988597 267.84 
L 103.776593 271.296 
L 104.170591 269.568 
L 105.746584 269.568 
L 106.140583 268.704 
L 106.928579 268.704 
L 108.504572 270 
L 108.89857 268.704 
L 109.292568 267.84 
L 110.868561 267.84 
L 111.26256 268.704 
L 111.656558 266.112 
L 112.050556 266.112 
L 112.444554 262.656 
L 113.626549 265.248 
L 114.020547 264.384 
L 114.414545 266.112 
L 115.202542 266.112 
L 116.384537 267.84 
L 117.172533 262.656 
L 117.566531 262.656 
L 117.96053 263.52 
L 119.142524 262.656 
L 119.536523 263.52 
L 119.930521 263.736 
L 120.324519 263.736 
L 120.718517 262.656 
L 121.900512 262.656 
L 122.29451 263.52 
L 122.688508 262.656 
L 123.082507 264.384 
L 123.476505 264.384 
L 124.6585 265.248 
L 125.052498 265.248 
L 125.840494 266.976 
L 127.416487 266.976 
L 127.810485 266.544 
L 128.204484 266.976 
L 128.598482 266.976 
L 128.99248 263.52 
L 130.174475 264.816 
L 130.568473 266.112 
L 130.962471 263.52 
L 131.35647 265.248 
L 131.750468 259.2 
L 132.932462 246.24 
L 133.326461 235.008 
L 133.720459 229.824 
L 134.114457 235.008 
L 134.508455 235.872 
L 135.69045 236.736 
L 136.084448 238.464 
L 136.478447 239.328 
L 136.872445 239.328 
L 137.266443 241.056 
L 138.842436 217.728 
L 139.236434 216 
L 139.630432 217.728 
L 140.024431 217.728 
L 141.222842 203.904 
L 142.010838 205.632 
L 142.404837 203.904 
L 142.798835 195.264 
L 143.98083 194.4 
L 144.374828 195.264 
L 144.768826 196.992 
L 145.162824 206.496 
L 145.556823 212.544 
L 146.738817 212.544 
L 147.132816 221.184 
L 147.526814 226.368 
L 147.920812 226.368 
L 148.31481 233.28 
L 149.496805 231.552 
L 149.890803 228.096 
L 150.284801 226.368 
L 150.6788 228.096 
L 152.254793 228.096 
L 152.648791 224.64 
L 153.042789 216 
L 153.436787 214.272 
L 153.830786 216 
L 155.01278 226.368 
L 155.406778 223.776 
L 155.800777 223.776 
L 156.194775 222.912 
L 156.588773 222.912 
L 158.164766 210.816 
L 158.558764 209.088 
L 158.952763 209.088 
L 159.346761 195.264 
L 160.528756 202.176 
L 160.922754 202.176 
L 161.316752 199.584 
L 161.71075 203.904 
L 162.104748 204.768 
L 163.286743 202.176 
L 164.862736 203.904 
L 166.044731 202.176 
L 167.226726 198.72 
L 167.620724 194.4 
L 169.196717 188.352 
L 169.590715 181.44 
L 169.984713 164.16 
L 170.378711 157.248 
L 171.560706 122.688 
L 172.348703 138.24 
L 172.742701 136.512 
L 173.136699 136.512 
L 174.318694 127.872 
L 174.712692 131.328 
L 175.10669 127.872 
L 175.894687 134.784 
L 177.076681 143.424 
L 177.47068 139.968 
L 177.864678 139.104 
L 178.258676 136.512 
L 178.652674 126.144 
L 179.834669 126.144 
L 180.228667 131.328 
L 180.622665 127.872 
L 181.016664 134.784 
L 181.410662 133.056 
L 182.592657 136.512 
L 182.986655 141.696 
L 183.380653 143.424 
L 183.774651 143.424 
L 184.16865 146.88 
L 185.350644 145.152 
L 185.744643 150.336 
L 186.138641 153.792 
L 186.532639 146.88 
L 186.926637 148.608 
L 188.108632 152.064 
L 188.50263 158.976 
L 188.896628 161.568 
L 189.290627 162.432 
L 189.684625 169.344 
L 190.86662 171.072 
L 191.260618 188.352 
L 191.654616 181.44 
L 192.048614 186.624 
L 192.442613 184.896 
L 193.624607 191.808 
L 194.018605 196.992 
L 194.412604 191.808 
L 194.806602 190.944 
L 195.2006 191.808 
L 196.382595 188.352 
L 196.776593 191.808 
L 197.170591 191.808 
L 197.958588 179.712 
L 199.140583 183.168 
L 199.534581 182.304 
L 199.928579 179.712 
L 200.716575 191.808 
L 201.882154 193.536 
L 202.276152 193.536 
L 202.67015 196.992 
L 203.064148 210.816 
L 203.458147 233.28 
L 204.640141 238.464 
L 205.034139 234.144 
L 205.428138 247.104 
L 205.822136 231.552 
L 207.398129 221.184 
L 207.792127 210.816 
L 208.186125 209.088 
L 208.580124 209.088 
L 210.550115 213.408 
L 210.944113 210.816 
L 211.732109 209.952 
L 212.914104 217.728 
L 213.308102 215.136 
L 213.702101 217.728 
L 214.490097 209.088 
L 215.672092 201.312 
L 216.06609 202.176 
L 216.460088 207.36 
L 216.854086 199.584 
L 217.248085 194.4 
L 218.430079 198.72 
L 218.824078 207.36 
L 219.612074 214.272 
L 220.006072 207.36 
L 221.188067 209.952 
L 221.582065 211.68 
L 222.76406 209.088 
L 223.946055 198.288 
L 224.340053 196.992 
L 224.734051 190.944 
L 225.522048 191.808 
L 226.704042 196.128 
L 227.098041 198.72 
L 227.492039 200.448 
L 227.886037 196.128 
L 229.856028 190.944 
L 230.250026 195.264 
L 230.644025 195.696 
L 231.038023 196.992 
L 232.220018 202.608 
L 233.008014 198.72 
L 233.402012 200.448 
L 234.978005 202.176 
L 235.372004 202.176 
L 236.16 203.904 
L 236.553998 208.224 
L 237.735993 206.496 
L 238.129991 206.496 
L 238.523989 207.36 
L 239.311986 207.36 
L 240.493981 209.088 
L 240.887979 209.088 
L 241.281977 211.68 
L 241.675975 213.408 
L 243.251968 215.136 
L 243.645966 214.704 
L 244.039965 217.728 
L 244.433963 216.864 
L 246.009956 220.32 
L 246.403954 220.32 
L 246.797952 222.048 
L 247.191951 219.456 
L 247.585949 221.184 
L 248.767944 217.728 
L 249.55594 217.728 
L 249.949938 220.32 
L 250.343936 219.456 
L 251.919929 218.592 
L 252.313928 219.456 
L 252.707926 217.728 
L 253.101924 216.864 
L 254.283919 213.408 
L 255.071915 215.136 
L 255.465914 220.32 
L 255.859912 219.456 
L 257.041906 219.456 
L 257.435905 219.024 
L 257.829903 221.184 
L 258.223901 220.32 
L 258.617899 219.888 
L 259.799894 220.32 
L 260.587891 223.776 
L 260.981889 228.096 
L 261.375887 235.872 
L 262.557882 235.872 
L 263.345878 235.008 
L 264.133875 228.096 
L 265.315869 228.96 
L 265.709868 229.824 
L 266.103866 227.232 
L 266.497864 228.096 
L 266.891862 227.232 
L 268.073857 227.232 
L 268.467855 225.504 
L 268.861853 228.096 
L 269.64985 228.096 
L 270.831845 230.688 
L 271.225843 224.64 
L 272.013839 226.368 
L 272.407838 224.64 
L 273.589832 225.504 
L 273.983831 225.504 
L 274.771827 227.232 
L 275.165825 225.504 
L 276.34782 218.592 
L 276.741818 207.36 
L 277.135816 200.448 
L 277.923813 179.712 
L 279.105808 184.464 
L 279.499806 184.032 
L 279.893804 183.168 
L 280.287802 181.44 
L 280.681801 177.984 
L 281.863795 181.44 
L 282.257793 177.984 
L 282.651792 180.576 
L 283.04579 182.304 
L 283.439788 178.848 
L 284.638199 182.304 
L 285.032198 182.736 
L 285.426196 180.576 
L 286.214192 193.536 
L 287.396187 191.808 
L 287.790185 198.288 
L 288.184184 196.128 
L 288.578182 196.128 
L 288.97218 196.992 
L 290.154175 196.992 
L 290.548173 196.128 
L 290.942171 196.992 
L 291.336169 196.128 
L 292.912162 196.128 
L 293.306161 198.72 
L 293.700159 196.128 
L 294.094157 196.128 
L 294.488155 197.424 
L 295.67015 196.128 
L 296.458147 197.856 
L 296.852145 199.584 
L 297.246143 198.72 
L 298.428138 199.584 
L 298.822136 198.72 
L 299.216134 200.448 
L 299.610132 195.264 
L 300.004131 183.168 
L 301.186125 169.344 
L 301.580124 175.392 
L 301.974122 178.848 
L 302.36812 184.032 
L 302.762118 178.848 
L 303.944113 182.304 
L 304.338111 186.624 
L 304.732109 195.264 
L 305.126108 194.4 
L 305.520106 181.872 
L 306.702101 179.712 
L 307.096099 181.44 
L 309.460088 184.032 
L 309.854086 185.76 
L 311.036081 186.624 
L 312.218076 190.944 
L 313.006072 177.12 
L 313.794069 158.976 
L 314.976064 150.336 
L 315.370062 157.248 
L 315.76406 158.112 
L 316.158058 146.016 
L 316.552056 144.288 
L 317.734051 140.832 
L 318.128049 135.648 
L 318.522048 120.96 
L 318.916046 120.528 
L 319.310044 118.368 
L 320.492039 123.12 
L 320.886037 122.688 
L 321.280035 112.32 
L 321.674034 108.864 
L 322.068032 107.136 
L 323.250026 101.088 
L 323.644025 100.224 
L 324.432021 129.6 
L 324.826019 110.592 
L 326.008014 110.592 
L 326.402012 114.912 
L 327.190009 105.408 
L 327.584007 105.408 
L 328.766002 108 
L 329.16 102.816 
L 329.553998 102.816 
L 329.947996 105.408 
L 330.341995 99.36 
L 331.523989 106.272 
L 331.917988 105.408 
L 332.311986 90.72 
L 333.099982 97.632 
L 334.281977 104.544 
L 334.675975 114.912 
L 335.069974 104.544 
L 335.463972 100.224 
L 335.85797 105.408 
L 337.039965 113.184 
L 337.433963 103.68 
L 337.827961 106.272 
L 338.221959 120.096 
L 338.615958 119.664 
L 339.797952 127.008 
L 340.191951 120.096 
L 340.585949 120.96 
L 340.979947 131.328 
L 341.373945 136.512 
L 342.55594 143.424 
L 342.949938 146.88 
L 343.343936 138.24 
L 343.737935 140.4 
L 344.131933 141.696 
L 345.297511 141.696 
L 345.691509 122.256 
L 346.085508 110.592 
L 346.479506 110.592 
L 348.449497 123.552 
L 348.843495 116.64 
L 349.631492 116.64 
L 350.813486 121.824 
L 351.207485 112.32 
L 351.995481 118.8 
L 352.389479 120.096 
L 353.571474 103.68 
L 353.965472 113.184 
L 354.35947 112.32 
L 355.147467 124.416 
L 356.329462 123.552 
L 356.72346 120.096 
L 357.117458 125.712 
L 357.511456 122.688 
L 359.087449 109.728 
L 359.481447 103.68 
L 359.875446 105.408 
L 360.269444 77.76 
L 360.663442 66.528 
L 361.845437 53.568 
L 362.239435 77.76 
L 362.633433 87.264 
L 363.42143 89.856 
L 365.391421 110.592 
L 365.785419 83.808 
L 366.179417 82.944 
L 367.75541 86.4 
L 368.149409 89.856 
L 368.543407 91.584 
L 368.937405 92.448 
L 370.1194 250.56 
L 370.513398 273.024 
L 370.907396 274.32 
L 371.695393 285.12 
L 372.877387 295.488 
L 373.271386 286.848 
L 373.665384 286.848 
L 374.059382 289.224 
L 374.45338 285.552 
L 375.635375 286.848 
L 376.029373 286.416 
L 376.81737 286.848 
L 378.393363 285.552 
L 378.787361 277.344 
L 379.181359 279.936 
L 379.575357 279.936 
L 379.969356 279.504 
L 381.15135 276.048 
L 381.545349 261.792 
L 381.939347 259.2 
L 382.333345 255.312 
L 382.727343 254.88 
L 383.909338 255.744 
L 384.303336 264.384 
L 384.697335 262.224 
L 385.091333 255.744 
L 385.485331 255.744 
L 386.667326 260.496 
L 387.455322 271.728 
L 387.84932 269.568 
L 388.243319 272.16 
L 389.425313 277.344 
L 389.819312 277.344 
L 390.21331 280.8 
L 390.607308 282.528 
L 391.001306 287.28 
L 392.183301 287.064 
L 392.577299 291.168 
L 392.971297 289.872 
L 393.365296 291.168 
L 395.335287 279.072 
L 395.729285 278.424 
L 396.123283 278.208 
L 396.517282 273.024 
L 397.699276 273.888 
L 398.093274 273.024 
L 398.487273 269.568 
L 398.487273 269.568 
" clip-path="url(#pa20baa33b8)" style="fill: none; stroke: #1f77b4; stroke-opacity: 0.6; stroke-width: 1.5; stroke-linecap: square"/>
   </g>
   <g id="line2d_34">
    <path d="M 73.832727 263.52 
L 75.40872 260.064 
L 75.802718 260.928 
L 76.196717 262.656 
L 76.590715 263.52 
L 78.166708 264.384 
L 78.560706 264.384 
L 78.954704 264.816 
L 79.348703 264.816 
L 80.530697 265.248 
L 81.318694 266.976 
L 81.712692 266.976 
L 82.10669 268.704 
L 83.288685 267.408 
L 83.682683 267.84 
L 84.076681 265.248 
L 84.864678 264.384 
L 86.046673 266.112 
L 86.440671 266.976 
L 86.834669 265.248 
L 87.228667 265.248 
L 87.622665 266.976 
L 89.592657 266.976 
L 89.986655 266.112 
L 91.562648 263.736 
L 91.956646 264.384 
L 92.350644 264.384 
L 93.138641 263.52 
L 94.320635 264.384 
L 95.108632 265.248 
L 95.50263 266.112 
L 95.896628 266.112 
L 97.078623 270.432 
L 97.472621 272.592 
L 97.86662 275.616 
L 98.260618 274.752 
L 98.654616 274.752 
L 99.836611 271.296 
L 100.230609 267.84 
L 100.624607 268.704 
L 101.018605 267.84 
L 101.412604 267.84 
L 102.594598 268.704 
L 102.988597 267.84 
L 103.776593 271.296 
L 104.170591 269.568 
L 105.746584 269.568 
L 106.140583 268.704 
L 106.928579 268.704 
L 108.504572 270 
L 108.89857 268.704 
L 109.292568 267.84 
L 110.868561 267.84 
L 111.26256 268.704 
L 111.656558 266.112 
L 112.050556 266.112 
L 112.444554 262.656 
L 113.626549 265.248 
L 114.020547 264.384 
L 114.414545 266.112 
L 115.202542 266.112 
L 116.384537 267.84 
L 117.172533 262.656 
L 117.566531 262.656 
L 117.96053 263.52 
L 119.142524 262.656 
L 119.536523 263.52 
L 119.930521 263.736 
L 120.324519 263.736 
L 120.718517 262.656 
L 121.900512 262.656 
L 122.29451 263.52 
L 122.688508 262.656 
L 123.082507 264.384 
L 123.476505 264.384 
L 124.6585 265.248 
L 125.052498 265.248 
L 125.840494 266.976 
L 127.416487 266.976 
L 127.810485 266.544 
L 128.204484 266.976 
L 128.598482 266.976 
L 128.99248 263.52 
L 130.174475 264.816 
L 130.568473 266.112 
L 130.962471 263.52 
L 131.35647 265.248 
L 131.750468 259.2 
L 132.932462 246.24 
L 133.326461 235.008 
L 133.720459 229.824 
L 134.114457 235.008 
L 134.508455 235.872 
L 135.69045 236.736 
L 136.084448 238.464 
L 136.478447 239.328 
L 136.872445 239.328 
L 137.266443 241.056 
L 138.842436 217.728 
L 139.236434 216 
L 139.630432 217.728 
L 140.024431 217.728 
L 141.222842 203.904 
L 142.010838 205.632 
L 142.404837 203.904 
L 142.798835 195.264 
L 143.98083 194.4 
L 144.374828 195.264 
L 144.768826 196.992 
L 145.162824 206.496 
L 145.556823 212.544 
L 146.738817 212.544 
L 147.132816 221.184 
L 147.526814 226.368 
L 147.920812 226.368 
L 148.31481 233.28 
L 149.496805 231.552 
L 149.890803 228.096 
L 150.284801 226.368 
L 150.6788 228.096 
L 152.254793 228.096 
L 152.648791 224.64 
L 153.042789 216 
L 153.436787 214.272 
L 153.830786 216 
L 155.01278 226.368 
L 155.406778 223.776 
L 155.800777 223.776 
L 156.194775 222.912 
L 156.588773 222.912 
L 158.164766 210.816 
L 158.558764 209.088 
L 158.952763 209.088 
L 159.346761 195.264 
L 160.528756 202.176 
L 160.922754 202.176 
L 161.316752 199.584 
L 161.71075 203.904 
L 162.104748 204.768 
L 163.286743 202.176 
L 164.862736 203.904 
L 166.044731 202.176 
L 167.226726 198.72 
L 167.620724 194.4 
L 169.196717 188.352 
L 169.590715 181.44 
L 169.984713 164.16 
L 170.378711 157.248 
L 171.560706 122.688 
L 172.348703 138.24 
L 172.742701 136.512 
L 173.136699 136.512 
L 174.318694 127.872 
L 174.712692 131.328 
L 175.10669 127.872 
L 175.894687 134.784 
L 177.076681 143.424 
L 177.47068 139.968 
L 177.864678 139.104 
L 178.258676 136.512 
L 178.652674 126.144 
L 179.834669 126.144 
L 180.228667 131.328 
L 180.622665 127.872 
L 181.016664 134.784 
L 181.410662 133.056 
L 182.592657 136.512 
L 182.986655 141.696 
L 183.380653 143.424 
L 183.774651 143.424 
L 184.16865 146.88 
L 185.350644 145.152 
L 185.744643 150.336 
L 186.138641 153.792 
L 186.532639 146.88 
L 186.926637 148.608 
L 188.108632 152.064 
L 188.50263 158.976 
L 188.896628 161.568 
L 189.290627 162.432 
L 189.684625 169.344 
L 190.86662 171.072 
L 191.260618 188.352 
L 191.654616 181.44 
L 192.048614 186.624 
L 192.442613 184.896 
L 193.624607 191.808 
L 194.018605 196.992 
L 194.412604 191.808 
L 194.806602 190.944 
L 195.2006 191.808 
L 196.382595 188.352 
L 196.776593 191.808 
L 197.170591 191.808 
L 197.958588 179.712 
L 199.140583 183.168 
L 199.534581 182.304 
L 199.928579 179.712 
L 200.716575 191.808 
L 201.882154 193.536 
L 202.276152 193.536 
L 202.67015 196.992 
L 203.064148 210.816 
L 203.458147 233.28 
L 204.640141 238.464 
L 205.034139 234.144 
L 205.428138 247.104 
L 205.822136 231.552 
L 207.398129 221.184 
L 207.792127 210.816 
L 208.186125 209.088 
L 208.580124 209.088 
L 210.550115 213.408 
L 210.944113 210.816 
L 211.732109 209.952 
L 212.914104 217.728 
L 213.308102 215.136 
L 213.702101 217.728 
L 214.490097 209.088 
L 215.672092 201.312 
L 216.06609 202.176 
L 216.460088 207.36 
L 216.854086 199.584 
L 217.248085 194.4 
L 218.430079 198.72 
L 218.824078 207.36 
L 219.612074 214.272 
L 220.006072 207.36 
L 221.188067 209.952 
L 221.582065 211.68 
L 222.76406 209.088 
L 223.946055 198.288 
L 224.340053 196.992 
L 224.734051 190.944 
L 225.522048 191.808 
L 226.704042 196.128 
L 227.098041 198.72 
L 227.492039 200.448 
L 227.886037 196.128 
L 229.856028 190.944 
L 230.250026 195.264 
L 230.644025 195.696 
L 231.038023 196.992 
L 232.220018 202.608 
L 233.008014 198.72 
L 233.402012 200.448 
L 234.978005 202.176 
L 235.372004 202.176 
L 236.16 203.904 
L 236.553998 208.224 
L 237.735993 206.496 
L 238.129991 206.496 
L 238.523989 207.36 
L 239.311986 207.36 
L 240.493981 209.088 
L 240.887979 209.088 
L 241.281977 211.68 
L 241.675975 213.408 
L 243.251968 215.136 
L 243.645966 214.704 
L 244.039965 217.728 
L 244.433963 216.864 
L 246.009956 220.32 
L 246.403954 220.32 
L 246.797952 222.048 
L 247.191951 219.456 
L 247.585949 221.184 
L 248.767944 217.728 
L 249.55594 217.728 
L 249.949938 220.32 
L 250.343936 219.456 
L 251.919929 218.592 
L 252.313928 219.456 
L 252.707926 217.728 
L 253.101924 216.864 
L 254.283919 213.408 
L 255.071915 215.136 
L 255.465914 220.32 
L 255.859912 219.456 
L 257.041906 219.456 
L 257.435905 219.024 
L 257.829903 221.184 
L 258.223901 220.32 
L 258.617899 219.888 
L 259.799894 220.32 
L 260.587891 223.776 
L 260.981889 228.096 
L 261.375887 235.872 
L 262.557882 235.872 
L 263.345878 235.008 
L 264.133875 228.096 
L 265.315869 228.96 
L 265.709868 229.824 
L 266.103866 227.232 
L 266.497864 228.096 
L 266.891862 227.232 
L 268.073857 227.232 
L 268.467855 225.504 
L 268.861853 228.096 
L 269.64985 228.096 
L 270.831845 230.688 
L 271.225843 224.64 
L 272.013839 226.368 
L 272.407838 224.64 
L 273.589832 225.504 
L 273.983831 225.504 
L 274.771827 227.232 
L 275.165825 225.504 
L 276.34782 218.592 
L 276.741818 207.36 
L 277.135816 200.448 
L 277.923813 179.712 
L 279.105808 184.464 
L 279.499806 184.032 
L 279.893804 183.168 
L 280.287802 181.44 
L 280.681801 177.984 
L 281.863795 181.44 
L 282.257793 177.984 
L 282.651792 180.576 
L 283.04579 182.304 
L 283.439788 178.848 
L 284.638199 182.304 
L 285.032198 182.736 
L 285.426196 180.576 
L 286.214192 193.536 
L 287.396187 191.808 
L 287.790185 198.288 
L 288.184184 196.128 
L 288.578182 196.128 
L 288.97218 196.992 
L 290.154175 196.992 
L 290.548173 196.128 
L 290.942171 196.992 
L 291.336169 196.128 
L 292.912162 196.128 
L 293.306161 198.72 
L 293.700159 196.128 
L 294.094157 196.128 
L 294.488155 197.424 
L 295.67015 196.128 
L 296.458147 197.856 
L 296.852145 199.584 
L 297.246143 198.72 
L 298.428138 199.584 
L 298.822136 198.72 
L 299.216134 200.448 
L 299.610132 195.264 
L 300.004131 183.168 
L 301.186125 169.344 
L 301.580124 175.392 
L 301.974122 178.848 
L 302.36812 184.032 
L 302.762118 178.848 
L 303.944113 182.304 
L 304.338111 186.624 
L 304.732109 195.264 
L 305.126108 194.4 
L 305.520106 181.872 
L 306.702101 179.712 
L 307.096099 181.44 
L 309.460088 184.032 
L 309.854086 185.76 
L 311.036081 186.624 
L 312.218076 190.944 
L 313.006072 177.12 
L 313.794069 158.976 
L 314.976064 150.336 
L 315.370062 157.248 
L 315.76406 158.112 
L 316.158058 146.016 
L 316.552056 144.288 
L 317.734051 140.832 
L 318.128049 135.648 
L 318.522048 120.96 
L 318.916046 120.528 
L 319.310044 118.368 
L 320.492039 123.12 
L 320.886037 122.688 
L 321.280035 112.32 
L 321.674034 108.864 
L 322.068032 107.136 
L 323.250026 101.088 
L 323.644025 100.224 
L 324.432021 129.6 
L 324.826019 110.592 
L 326.008014 110.592 
L 326.402012 114.912 
L 327.190009 105.408 
L 327.584007 105.408 
L 328.766002 108 
L 329.16 102.816 
L 329.553998 102.816 
L 329.947996 105.408 
L 330.341995 99.36 
L 331.523989 106.272 
L 331.917988 105.408 
L 332.311986 90.72 
L 333.099982 97.632 
L 334.281977 104.544 
L 334.675975 114.912 
L 335.069974 104.544 
L 335.463972 100.224 
L 335.85797 105.408 
L 337.039965 113.184 
L 337.433963 103.68 
L 337.827961 106.272 
L 338.221959 120.096 
L 338.615958 119.664 
L 339.797952 127.008 
L 340.191951 120.096 
L 340.585949 120.96 
L 340.979947 131.328 
L 341.373945 136.512 
L 342.55594 143.424 
L 342.949938 146.88 
L 343.343936 138.24 
L 343.737935 140.4 
L 344.131933 141.696 
L 345.297511 141.696 
L 345.691509 122.256 
L 346.085508 110.592 
L 346.479506 110.592 
L 348.449497 123.552 
L 348.843495 116.64 
L 349.631492 116.64 
L 350.813486 121.824 
L 351.207485 112.32 
L 351.995481 118.8 
L 352.389479 120.096 
L 353.571474 103.68 
L 353.965472 113.184 
L 354.35947 112.32 
L 355.147467 124.416 
L 356.329462 123.552 
L 356.72346 120.096 
L 357.117458 125.712 
L 357.511456 122.688 
L 359.087449 109.728 
L 359.481447 103.68 
L 359.875446 105.408 
L 360.269444 77.76 
L 360.663442 66.528 
L 361.845437 53.568 
L 362.239435 77.76 
L 362.633433 87.264 
L 363.42143 89.856 
L 365.391421 110.592 
L 365.785419 83.808 
L 366.179417 82.944 
L 367.75541 86.4 
L 368.149409 89.856 
L 368.543407 91.584 
L 368.937405 92.448 
L 370.1194 250.56 
L 370.513398 273.024 
L 370.907396 274.32 
L 371.695393 285.12 
L 372.877387 295.488 
L 373.271386 286.848 
L 373.665384 286.848 
L 374.059382 289.224 
L 374.45338 285.552 
L 375.635375 286.848 
L 376.029373 286.416 
L 376.81737 286.848 
L 378.393363 285.552 
L 378.787361 277.344 
L 379.181359 279.936 
L 379.575357 279.936 
L 379.969356 279.504 
L 381.15135 276.048 
L 381.545349 261.792 
L 381.939347 259.2 
L 382.333345 255.312 
L 382.727343 254.88 
L 383.909338 255.744 
L 384.303336 264.384 
L 384.697335 262.224 
L 385.091333 255.744 
L 385.485331 255.744 
L 386.667326 260.496 
L 387.455322 271.728 
L 387.84932 269.568 
L 388.243319 272.16 
L 389.425313 277.344 
L 389.819312 277.344 
L 390.21331 280.8 
L 390.607308 282.528 
L 391.001306 287.28 
L 392.183301 287.064 
L 392.577299 291.168 
L 392.971297 289.872 
L 393.365296 291.168 
L 395.335287 279.072 
L 395.729285 278.424 
L 396.123283 278.208 
L 396.517282 273.024 
L 397.699276 273.888 
L 398.093274 273.024 
L 398.487273 269.568 
L 398.487273 269.568 
" clip-path="url(#pa20baa33b8)" style="fill: none; stroke: #ff7f0e; stroke-opacity: 0.6; stroke-width: 1.5; stroke-linecap: square"/>
   </g>
   <g id="patch_3">
    <path d="M 57.6 307.584 
L 57.6 41.472 
" style="fill: none; stroke: #000000; stroke-width: 0.8; stroke-linejoin: miter; stroke-linecap: square"/>
   </g>
   <g id="patch_4">
    <path d="M 414.72 307.584 
L 414.72 41.472 
" style="fill: none; stroke: #000000; stroke-width: 0.8; stroke-linejoin: miter; stroke-linecap: square"/>
   </g>
   <g id="patch_5">
    <path d="M 57.6 307.584 
L 414.72 307.584 
" style="fill: none; stroke: #000000; stroke-width: 0.8; stroke-linejoin: miter; stroke-linecap: square"/>
   </g>
   <g id="patch_6">
    <path d="M 57.6 41.472 
L 414.72 41.472 
" style="fill: none; stroke: #000000; stroke-width: 0.8; stroke-linejoin: miter; stroke-linecap: square"/>
   </g>
   <g id="text_19">
    <!-- Oculis Holding - Stock price trajectory -->
    <g transform="translate(122.505 35.472) scale(0.12 -0.12)">
     <defs>
      <path id="DejaVuSans-32" d="M 2522 4238 
Q 1834 4238 1429 3725 
Q 1025 3213 1025 2328 
Q 1025 1447 1429 934 
Q 1834 422 2522 422 
Q 3209 422 3611 934 
Q 4013 1447 4013 2328 
Q 4013 3213 3611 3725 
Q 3209 4238 2522 4238 
z
M 2522 4750 
Q 3503 4750 4090 4092 
Q 4678 3434 4678 2328 
Q 4678 1225 4090 567 
Q 3503 -91 2522 -91 
Q 1538 -91 948 565 
Q 359 1222 359 2328 
Q 359 3434 948 4092 
Q 1538 4750 2522 4750 
z
" transform="scale(0.015625)"/>
      <path id="DejaVuSans-58" d="M 544 1381 
L 544 3500 
L 1119 3500 
L 1119 1403 
Q 1119 906 1312 657 
Q 1506 409 1894 409 
Q 2359 409 2629 706 
Q 2900 1003 2900 1516 
L 2900 3500 
L 3475 3500 
L 3475 0 
L 2900 0 
L 2900 538 
Q 2691 219 2414 64 
Q 2138 -91 1772 -91 
Q 1169 -91 856 284 
Q 544 659 544 1381 
z
M 1991 3584 
L 1991 3584 
z
" transform="scale(0.015625)"/>
      <path id="DejaVuSans-4f" d="M 603 4863 
L 1178 4863 
L 1178 0 
L 603 0 
L 603 4863 
z
" transform="scale(0.015625)"/>
      <path id="DejaVuSans-56" d="M 2834 3397 
L 2834 2853 
Q 2591 2978 2328 3040 
Q 2066 3103 1784 3103 
Q 1356 3103 1142 2972 
Q 928 2841 928 2578 
Q 928 2378 1081 2264 
Q 1234 2150 1697 2047 
L 1894 2003 
Q 2506 1872 2764 1633 
Q 3022 1394 3022 966 
Q 3022 478 2636 193 
Q 2250 -91 1575 -91 
Q 1294 -91 989 -36 
Q 684 19 347 128 
L 347 722 
Q 666 556 975 473 
Q 1284 391 1588 391 
Q 1994 391 2212 530 
Q 2431 669 2431 922 
Q 2431 1156 2273 1281 
Q 2116 1406 1581 1522 
L 1381 1569 
Q 847 1681 609 1914 
Q 372 2147 372 2553 
Q 372 3047 722 3315 
Q 1072 3584 1716 3584 
Q 2034 3584 2315 3537 
Q 2597 3491 2834 3397 
z
" transform="scale(0.015625)"/>
      <path id="DejaVuSans-3" transform="scale(0.015625)"/>
      <path id="DejaVuSans-2b" d="M 628 4666 
L 1259 4666 
L 1259 2753 
L 3553 2753 
L 3553 4666 
L 4184 4666 
L 4184 0 
L 3553 0 
L 3553 2222 
L 1259 2222 
L 1259 0 
L 628 0 
L 628 4666 
z
" transform="scale(0.015625)"/>
      <path id="DejaVuSans-52" d="M 1959 3097 
Q 1497 3097 1228 2736 
Q 959 2375 959 1747 
Q 959 1119 1226 758 
Q 1494 397 1959 397 
Q 2419 397 2687 759 
Q 2956 1122 2956 1747 
Q 2956 2369 2687 2733 
Q 2419 3097 1959 3097 
z
M 1959 3584 
Q 2709 3584 3137 3096 
Q 3566 2609 3566 1747 
Q 3566 888 3137 398 
Q 2709 -91 1959 -91 
Q 1206 -91 779 398 
Q 353 888 353 1747 
Q 353 2609 779 3096 
Q 1206 3584 1959 3584 
z
" transform="scale(0.015625)"/>
      <path id="DejaVuSans-47" d="M 2906 2969 
L 2906 4863 
L 3481 4863 
L 3481 0 
L 2906 0 
L 2906 525 
Q 2725 213 2448 61 
Q 2172 -91 1784 -91 
Q 1150 -91 751 415 
Q 353 922 353 1747 
Q 353 2572 751 3078 
Q 1150 3584 1784 3584 
Q 2172 3584 2448 3432 
Q 2725 3281 2906 2969 
z
M 947 1747 
Q 947 1113 1208 752 
Q 1469 391 1925 391 
Q 2381 391 2643 752 
Q 2906 1113 2906 1747 
Q 2906 2381 2643 2742 
Q 2381 3103 1925 3103 
Q 1469 3103 1208 2742 
Q 947 2381 947 1747 
z
" transform="scale(0.015625)"/>
      <path id="DejaVuSans-51" d="M 3513 2113 
L 3513 0 
L 2938 0 
L 2938 2094 
Q 2938 2591 2744 2837 
Q 2550 3084 2163 3084 
Q 1697 3084 1428 2787 
Q 1159 2491 1159 1978 
L 1159 0 
L 581 0 
L 581 3500 
L 1159 3500 
L 1159 2956 
Q 1366 3272 1645 3428 
Q 1925 3584 2291 3584 
Q 2894 3584 3203 3211 
Q 3513 2838 3513 2113 
z
" transform="scale(0.015625)"/>
      <path id="DejaVuSans-4a" d="M 2906 1791 
Q 2906 2416 2648 2759 
Q 2391 3103 1925 3103 
Q 1463 3103 1205 2759 
Q 947 2416 947 1791 
Q 947 1169 1205 825 
Q 1463 481 1925 481 
Q 2391 481 2648 825 
Q 2906 1169 2906 1791 
z
M 3481 434 
Q 3481 -459 3084 -895 
Q 2688 -1331 1869 -1331 
Q 1566 -1331 1297 -1286 
Q 1028 -1241 775 -1147 
L 775 -588 
Q 1028 -725 1275 -790 
Q 1522 -856 1778 -856 
Q 2344 -856 2625 -561 
Q 2906 -266 2906 331 
L 2906 616 
Q 2728 306 2450 153 
Q 2172 0 1784 0 
Q 1141 0 747 490 
Q 353 981 353 1791 
Q 353 2603 747 3093 
Q 1141 3584 1784 3584 
Q 2172 3584 2450 3431 
Q 2728 3278 2906 2969 
L 2906 3500 
L 3481 3500 
L 3481 434 
z
" transform="scale(0.015625)"/>
      <path id="DejaVuSans-36" d="M 3425 4513 
L 3425 3897 
Q 3066 4069 2747 4153 
Q 2428 4238 2131 4238 
Q 1616 4238 1336 4038 
Q 1056 3838 1056 3469 
Q 1056 3159 1242 3001 
Q 1428 2844 1947 2747 
L 2328 2669 
Q 3034 2534 3370 2195 
Q 3706 1856 3706 1288 
Q 3706 609 3251 259 
Q 2797 -91 1919 -91 
Q 1588 -91 1214 -16 
Q 841 59 441 206 
L 441 856 
Q 825 641 1194 531 
Q 1563 422 1919 422 
Q 2459 422 2753 634 
Q 3047 847 3047 1241 
Q 3047 1584 2836 1778 
Q 2625 1972 2144 2069 
L 1759 2144 
Q 1053 2284 737 2584 
Q 422 2884 422 3419 
Q 422 4038 858 4394 
Q 1294 4750 2059 4750 
Q 2388 4750 2728 4690 
Q 3069 4631 3425 4513 
z
" transform="scale(0.015625)"/>
      <path id="DejaVuSans-57" d="M 1172 4494 
L 1172 3500 
L 2356 3500 
L 2356 3053 
L 1172 3053 
L 1172 1153 
Q 1172 725 1289 603 
Q 1406 481 1766 481 
L 2356 481 
L 2356 0 
L 1766 0 
Q 1100 0 847 248 
Q 594 497 594 1153 
L 594 3053 
L 172 3053 
L 172 3500 
L 594 3500 
L 594 4494 
L 1172 4494 
z
" transform="scale(0.015625)"/>
      <path id="DejaVuSans-4e" d="M 581 4863 
L 1159 4863 
L 1159 1991 
L 2875 3500 
L 3609 3500 
L 1753 1863 
L 3688 0 
L 2938 0 
L 1159 1709 
L 1159 0 
L 581 0 
L 581 4863 
z
" transform="scale(0.015625)"/>
      <path id="DejaVuSans-53" d="M 1159 525 
L 1159 -1331 
L 581 -1331 
L 581 3500 
L 1159 3500 
L 1159 2969 
Q 1341 3281 1617 3432 
Q 1894 3584 2278 3584 
Q 2916 3584 3314 3078 
Q 3713 2572 3713 1747 
Q 3713 922 3314 415 
Q 2916 -91 2278 -91 
Q 1894 -91 1617 61 
Q 1341 213 1159 525 
z
M 3116 1747 
Q 3116 2381 2855 2742 
Q 2594 3103 2138 3103 
Q 1681 3103 1420 2742 
Q 1159 2381 1159 1747 
Q 1159 1113 1420 752 
Q 1681 391 2138 391 
Q 2594 391 2855 752 
Q 3116 1113 3116 1747 
z
" transform="scale(0.015625)"/>
      <path id="DejaVuSans-44" d="M 2194 1759 
Q 1497 1759 1228 1600 
Q 959 1441 959 1056 
Q 959 750 1161 570 
Q 1363 391 1709 391 
Q 2188 391 2477 730 
Q 2766 1069 2766 1631 
L 2766 1759 
L 2194 1759 
z
M 3341 1997 
L 3341 0 
L 2766 0 
L 2766 531 
Q 2569 213 2275 61 
Q 1981 -91 1556 -91 
Q 1019 -91 701 211 
Q 384 513 384 1019 
Q 384 1609 779 1909 
Q 1175 2209 1959 2209 
L 2766 2209 
L 2766 2266 
Q 2766 2663 2505 2880 
Q 2244 3097 1772 3097 
Q 1472 3097 1187 3025 
Q 903 2953 641 2809 
L 641 3341 
Q 956 3463 1253 3523 
Q 1550 3584 1831 3584 
Q 2591 3584 2966 3190 
Q 3341 2797 3341 1997 
z
" transform="scale(0.015625)"/>
      <path id="DejaVuSans-4d" d="M 603 3500 
L 1178 3500 
L 1178 -63 
Q 1178 -731 923 -1031 
Q 669 -1331 103 -1331 
L -116 -1331 
L -116 -844 
L 38 -844 
Q 366 -844 484 -692 
Q 603 -541 603 -63 
L 603 3500 
z
M 603 4863 
L 1178 4863 
L 1178 4134 
L 603 4134 
L 603 4863 
z
" transform="scale(0.015625)"/>
      <path id="DejaVuSans-5c" d="M 2059 -325 
Q 1816 -950 1584 -1140 
Q 1353 -1331 966 -1331 
L 506 -1331 
L 506 -850 
L 844 -850 
Q 1081 -850 1212 -737 
Q 1344 -625 1503 -206 
L 1606 56 
L 191 3500 
L 800 3500 
L 1894 763 
L 2988 3500 
L 3597 3500 
L 2059 -325 
z
" transform="scale(0.015625)"/>
     </defs>
     <use xlink:href="#DejaVuSans-32"/>
     <use xlink:href="#DejaVuSans-46" transform="translate(78.71875 0)"/>
     <use xlink:href="#DejaVuSans-58" transform="translate(133.703125 0)"/>
     <use xlink:href="#DejaVuSans-4f" transform="translate(197.078125 0)"/>
     <use xlink:href="#DejaVuSans-4c" transform="translate(224.859375 0)"/>
     <use xlink:href="#DejaVuSans-56" transform="translate(252.640625 0)"/>
     <use xlink:href="#DejaVuSans-3" transform="translate(304.734375 0)"/>
     <use xlink:href="#DejaVuSans-2b" transform="translate(336.515625 0)"/>
     <use xlink:href="#DejaVuSans-52" transform="translate(411.71875 0)"/>
     <use xlink:href="#DejaVuSans-4f" transform="translate(472.90625 0)"/>
     <use xlink:href="#DejaVuSans-47" transform="translate(500.6875 0)"/>
     <use xlink:href="#DejaVuSans-4c" transform="translate(564.171875 0)"/>
     <use xlink:href="#DejaVuSans-51" transform="translate(591.953125 0)"/>
     <use xlink:href="#DejaVuSans-4a" transform="translate(655.328125 0)"/>
     <use xlink:href="#DejaVuSans-3" transform="translate(718.8125 0)"/>
     <use xlink:href="#DejaVuSans-10" transform="translate(750.59375 0)"/>
     <use xlink:href="#DejaVuSans-3" transform="translate(786.671875 0)"/>
     <use xlink:href="#DejaVuSans-36" transform="translate(818.453125 0)"/>
     <use xlink:href="#DejaVuSans-57" transform="translate(881.9375 0)"/>
     <use xlink:href="#DejaVuSans-52" transform="translate(921.140625 0)"/>
     <use xlink:href="#DejaVuSans-46" transform="translate(982.328125 0)"/>
     <use xlink:href="#DejaVuSans-4e" transform="translate(1037.3125 0)"/>
     <use xlink:href="#DejaVuSans-3" transform="translate(1095.21875 0)"/>
     <use xlink:href="#DejaVuSans-53" transform="translate(1127 0)"/>
     <use xlink:href="#DejaVuSans-55" transform="translate(1190.484375 0)"/>
     <use xlink:href="#DejaVuSans-4c" transform="translate(1231.59375 0)"/>
     <use xlink:href="#DejaVuSans-46" transform="translate(1259.375 0)"/>
     <use xlink:href="#DejaVuSans-48" transform="translate(1314.359375 0)"/>
     <use xlink:href="#DejaVuSans-3" transform="translate(1375.890625 0)"/>
     <use xlink:href="#DejaVuSans-57" transform="translate(1407.671875 0)"/>
     <use xlink:href="#DejaVuSans-55" transform="translate(1446.875 0)"/>
     <use xlink:href="#DejaVuSans-44" transform="translate(1487.984375 0)"/>
     <use xlink:href="#DejaVuSans-4d" transform="translate(1549.265625 0)"/>
     <use xlink:href="#DejaVuSans-48" transform="translate(1577.046875 0)"/>
     <use xlink:href="#DejaVuSans-46" transform="translate(1638.578125 0)"/>
     <use xlink:href="#DejaVuSans-57" transform="translate(1693.5625 0)"/>
     <use xlink:href="#DejaVuSans-52" transform="translate(1732.765625 0)"/>
     <use xlink:href="#DejaVuSans-55" transform="translate(1793.953125 0)"/>
     <use xlink:href="#DejaVuSans-5c" transform="translate(1835.0625 0)"/>
    </g>
   </g>
   <g id="legend_1">
    <g id="patch_7">
     <path d="M 64.6 79.473563 
L 117.634375 79.473563 
Q 119.634375 79.473563 119.634375 77.473563 
L 119.634375 48.472 
Q 119.634375 46.472 117.634375 46.472 
L 64.6 46.472 
Q 62.6 46.472 62.6 48.472 
L 62.6 77.473563 
Q 62.6 79.473563 64.6 79.473563 
z
" style="fill: #ffffff; opacity: 0.8; stroke: #cccccc; stroke-linejoin: miter"/>
    </g>
    <g id="line2d_35">
     <path d="M 66.6 54.570438 
L 76.6 54.570438 
L 86.6 54.570438 
" style="fill: none; stroke: #1f77b4; stroke-opacity: 0.6; stroke-width: 1.5; stroke-linecap: square"/>
    </g>
    <g id="text_20">
     <!-- Raw -->
     <g transform="translate(94.6 58.070438) scale(0.1 -0.1)">
      <defs>
       <path id="DejaVuSans-35" d="M 2841 2188 
Q 3044 2119 3236 1894 
Q 3428 1669 3622 1275 
L 4263 0 
L 3584 0 
L 2988 1197 
Q 2756 1666 2539 1819 
Q 2322 1972 1947 1972 
L 1259 1972 
L 1259 0 
L 628 0 
L 628 4666 
L 2053 4666 
Q 2853 4666 3247 4331 
Q 3641 3997 3641 3322 
Q 3641 2881 3436 2590 
Q 3231 2300 2841 2188 
z
M 1259 4147 
L 1259 2491 
L 2053 2491 
Q 2509 2491 2742 2702 
Q 2975 2913 2975 3322 
Q 2975 3731 2742 3939 
Q 2509 4147 2053 4147 
L 1259 4147 
z
" transform="scale(0.015625)"/>
       <path id="DejaVuSans-5a" d="M 269 3500 
L 844 3500 
L 1563 769 
L 2278 3500 
L 2956 3500 
L 3675 769 
L 4391 3500 
L 4966 3500 
L 4050 0 
L 3372 0 
L 2619 2869 
L 1863 0 
L 1184 0 
L 269 3500 
z
" transform="scale(0.015625)"/>
      </defs>
      <use xlink:href="#DejaVuSans-35"/>
      <use xlink:href="#DejaVuSans-44" transform="translate(67.28125 0)"/>
      <use xlink:href="#DejaVuSans-5a" transform="translate(128.5625 0)"/>
     </g>
    </g>
    <g id="line2d_36">
     <path d="M 66.6 69.571219 
L 76.6 69.571219 
L 86.6 69.571219 
" style="fill: none; stroke: #ff7f0e; stroke-opacity: 0.6; stroke-width: 1.5; stroke-linecap: square"/>
    </g>
    <g id="text_21">
     <!-- Adj -->
     <g transform="translate(94.6 73.071219) scale(0.1 -0.1)">
      <defs>
       <path id="DejaVuSans-24" d="M 2188 4044 
L 1331 1722 
L 3047 1722 
L 2188 4044 
z
M 1831 4666 
L 2547 4666 
L 4325 0 
L 3669 0 
L 3244 1197 
L 1141 1197 
L 716 0 
L 50 0 
L 1831 4666 
z
" transform="scale(0.015625)"/>
      </defs>
      <use xlink:href="#DejaVuSans-24"/>
      <use xlink:href="#DejaVuSans-47" transform="translate(66.65625 0)"/>
      <use xlink:href="#DejaVuSans-4d" transform="translate(130.140625 0)"/>
     </g>
    </g>
   </g>
  </g>
 </g>
 <defs>
  <clipPath id="pa20baa33b8">
   <rect x="57.6" y="41.472" width="357.12" height="266.112"/>
  </clipPath>
 </defs>
</svg>
